<?xml version="1.0" encoding="UTF-8" standalone="no"?>
<!-- Created with Inkscape (http://www.inkscape.org/) -->

<svg
   width="300"
   height="300"
   viewBox="0 0 79.374999 79.374999"
   version="1.1"
   id="svg5"
   sodipodi:docname="cardbg.svg"
   inkscape:version="1.1 (c4e8f9ed74, 2021-05-24)"
   xmlns:inkscape="http://www.inkscape.org/namespaces/inkscape"
   xmlns:sodipodi="http://sodipodi.sourceforge.net/DTD/sodipodi-0.dtd"
   xmlns:xlink="http://www.w3.org/1999/xlink"
   xmlns="http://www.w3.org/2000/svg"
   xmlns:svg="http://www.w3.org/2000/svg">
  <sodipodi:namedview
     id="namedview7"
     pagecolor="#505050"
     bordercolor="#eeeeee"
     borderopacity="1"
     inkscape:pageshadow="0"
     inkscape:pageopacity="0"
     inkscape:pagecheckerboard="0"
     inkscape:document-units="px"
     showgrid="false"
     inkscape:snap-bbox="true"
     inkscape:snap-bbox-midpoints="false"
     inkscape:snap-object-midpoints="true"
     inkscape:snap-center="true"
     inkscape:bbox-nodes="true"
     inkscape:snap-bbox-edge-midpoints="false"
     inkscape:snap-intersection-paths="false"
     inkscape:object-paths="false"
     inkscape:snap-midpoints="false"
     inkscape:snap-smooth-nodes="false"
     inkscape:snap-page="true"
     inkscape:bbox-paths="true"
     inkscape:snap-global="false"
     inkscape:snap-nodes="false"
     inkscape:object-nodes="true"
     inkscape:snap-grids="false"
     inkscape:snap-to-guides="false"
     inkscape:zoom="8.7484425"
     inkscape:cx="198.26386"
     inkscape:cy="280.9643"
     inkscape:window-width="1922"
     inkscape:window-height="1054"
     inkscape:window-x="-1"
     inkscape:window-y="-1"
     inkscape:window-maximized="0"
     inkscape:current-layer="g27279"
     units="px" />
  <defs
     id="defs2" />
  <g
     id="g27279"
     style="display:inline"
     inkscape:label="stars">
    <circle
       style="fill:#ffe680;fill-opacity:1;stroke-width:0.264583"
       id="path25945"
       cx="28.167408"
       cy="12.028368"
       r="0.48419899" />
    <use
       id="use26941"
       inkscape:spray-origin="#path25945"
       xlink:href="#path25945"
       transform="matrix(0.86911911,0,0,0.86911911,0.85544251,-7.1371966)"
       x="0"
       y="0"
       width="100%"
       height="100%" />
    <use
       id="use26943"
       inkscape:spray-origin="#path25945"
       xlink:href="#path25945"
       transform="matrix(0.85007068,0,0,0.85007068,3.4755153,-0.90200937)"
       x="0"
       y="0"
       width="100%"
       height="100%" />
    <use
       id="use26947"
       inkscape:spray-origin="#path25945"
       xlink:href="#path25945"
       transform="matrix(0.67593553,0,0,0.67593553,12.709299,0.20302781)"
       x="0"
       y="0"
       width="100%"
       height="100%" />
    <use
       id="use26951"
       inkscape:spray-origin="#path25945"
       xlink:href="#path25945"
       transform="matrix(0.66011261,0,0,0.66011261,12.644178,1.611012)"
       x="0"
       y="0"
       width="100%"
       height="100%" />
    <use
       id="use26953"
       inkscape:spray-origin="#path25945"
       xlink:href="#path25945"
       transform="matrix(0.75569518,0,0,0.75569518,8.9236937,0.88433354)"
       x="0"
       y="0"
       width="100%"
       height="100%" />
    <use
       id="use26955"
       inkscape:spray-origin="#path25945"
       xlink:href="#path25945"
       transform="matrix(0.97931698,0,0,0.97931698,6.146037,1.6659041)"
       x="0"
       y="0"
       width="100%"
       height="100%" />
    <use
       id="use26957"
       inkscape:spray-origin="#path25945"
       xlink:href="#path25945"
       transform="matrix(1.1388088,0,0,1.1388088,0.97040776,-1.8387615)"
       x="0"
       y="0"
       width="100%"
       height="100%" />
    <use
       id="use26959"
       inkscape:spray-origin="#path25945"
       xlink:href="#path25945"
       transform="matrix(0.75128653,0,0,0.75128653,13.590303,0.90034246)"
       x="0"
       y="0"
       width="100%"
       height="100%" />
    <use
       id="use26961"
       inkscape:spray-origin="#path25945"
       xlink:href="#path25945"
       transform="matrix(0.89554354,0,0,0.89554354,12.358788,-0.61939823)"
       x="0"
       y="0"
       width="100%"
       height="100%" />
    <use
       id="use26963"
       inkscape:spray-origin="#path25945"
       xlink:href="#path25945"
       transform="matrix(0.76881074,0,0,0.76881074,14.938651,2.7720318)"
       x="0"
       y="0"
       width="100%"
       height="100%" />
    <use
       id="use26965"
       inkscape:spray-origin="#path25945"
       xlink:href="#path25945"
       transform="matrix(0.62848875,0,0,0.62848875,17.868442,2.543197)"
       x="0"
       y="0"
       width="100%"
       height="100%" />
    <use
       id="use26967"
       inkscape:spray-origin="#path25945"
       xlink:href="#path25945"
       transform="matrix(0.75483172,0,0,0.75483172,16.924254,2.3605706)"
       x="0"
       y="0"
       width="100%"
       height="100%" />
    <use
       id="use26971"
       inkscape:spray-origin="#path25945"
       xlink:href="#path25945"
       transform="matrix(1.0817738,0,0,1.0817738,8.4751134,-0.23833784)"
       x="0"
       y="0"
       width="100%"
       height="100%" />
    <use
       id="use26975"
       inkscape:spray-origin="#path25945"
       xlink:href="#path25945"
       transform="matrix(0.60719014,0,0,0.60719014,23.72023,2.8643599)"
       x="0"
       y="0"
       width="100%"
       height="100%" />
    <use
       id="use26977"
       inkscape:spray-origin="#path25945"
       xlink:href="#path25945"
       transform="matrix(0.63163234,0,0,0.63163234,23.64992,1.6511978)"
       x="0"
       y="0"
       width="100%"
       height="100%" />
    <use
       id="use26979"
       inkscape:spray-origin="#path25945"
       xlink:href="#path25945"
       transform="matrix(1.2947493,0,0,1.2947493,7.3922064,-3.6674351)"
       x="0"
       y="0"
       width="100%"
       height="100%" />
    <use
       id="use26981"
       inkscape:spray-origin="#path25945"
       xlink:href="#path25945"
       transform="matrix(0.8489046,0,0,0.8489046,22.309216,0.14150444)"
       x="0"
       y="0"
       width="100%"
       height="100%" />
    <use
       id="use26985"
       inkscape:spray-origin="#path25945"
       xlink:href="#path25945"
       transform="matrix(0.66553372,0,0,0.66553372,28.667314,1.0790033)"
       x="0"
       y="0"
       width="100%"
       height="100%" />
    <use
       id="use26987"
       inkscape:spray-origin="#path25945"
       xlink:href="#path25945"
       transform="matrix(1.0790259,0,0,1.0790259,20.286583,-3.8973762)"
       x="0"
       y="0"
       width="100%"
       height="100%" />
    <use
       id="use26991"
       inkscape:spray-origin="#path25945"
       xlink:href="#path25945"
       transform="matrix(1.2119467,0,0,1.2119467,16.233695,-2.0489506)"
       x="0"
       y="0"
       width="100%"
       height="100%" />
    <use
       id="use26993"
       inkscape:spray-origin="#path25945"
       xlink:href="#path25945"
       transform="matrix(0.7830474,0,0,0.7830474,26.591544,1.177844)"
       x="0"
       y="0"
       width="100%"
       height="100%" />
    <use
       id="use26995"
       inkscape:spray-origin="#path25945"
       xlink:href="#path25945"
       transform="matrix(0.63988606,0,0,0.63988606,22.401248,1.4364309)"
       x="0"
       y="0"
       width="100%"
       height="100%" />
    <use
       id="use26997"
       inkscape:spray-origin="#path25945"
       xlink:href="#path25945"
       transform="matrix(1.0795359,0,0,1.0795359,21.556603,-1.5440735)"
       x="0"
       y="0"
       width="100%"
       height="100%" />
    <use
       id="use26999"
       inkscape:spray-origin="#path25945"
       xlink:href="#path25945"
       transform="matrix(0.77570547,0,0,0.77570547,23.403815,0.66205142)"
       x="0"
       y="0"
       width="100%"
       height="100%" />
    <use
       id="use27001"
       inkscape:spray-origin="#path25945"
       xlink:href="#path25945"
       transform="matrix(0.71604943,0,0,0.71604943,33.877607,0.18771496)"
       x="0"
       y="0"
       width="100%"
       height="100%" />
    <use
       id="use27003"
       inkscape:spray-origin="#path25945"
       xlink:href="#path25945"
       transform="matrix(0.60684439,0,0,0.60684439,37.144246,2.407542)"
       x="0"
       y="0"
       width="100%"
       height="100%" />
    <use
       id="use27005"
       inkscape:spray-origin="#path25945"
       xlink:href="#path25945"
       transform="matrix(0.81202547,0,0,0.81202547,30.883353,1.045822)"
       x="0"
       y="0"
       width="100%"
       height="100%" />
    <use
       id="use27007"
       inkscape:spray-origin="#path25945"
       xlink:href="#path25945"
       transform="matrix(1.310114,0,0,1.310114,30.587472,12.770292)"
       x="0"
       y="0"
       width="100%"
       height="100%" />
    <use
       id="use27009"
       inkscape:spray-origin="#path25945"
       xlink:href="#path25945"
       transform="matrix(0.95235126,0,0,0.95235126,43.578046,15.94562)"
       x="0"
       y="0"
       width="100%"
       height="100%" />
    <use
       id="use27017"
       inkscape:spray-origin="#path25945"
       xlink:href="#path25945"
       transform="matrix(0.65894301,0,0,0.65894301,51.062185,23.00254)"
       x="0"
       y="0"
       width="100%"
       height="100%" />
    <use
       id="use27021"
       inkscape:spray-origin="#path25945"
       xlink:href="#path25945"
       transform="matrix(0.62465204,0,0,0.62465204,51.371269,26.555422)"
       x="0"
       y="0"
       width="100%"
       height="100%" />
    <use
       id="use27023"
       inkscape:spray-origin="#path25945"
       xlink:href="#path25945"
       transform="matrix(0.8898008,0,0,0.8898008,44.078751,27.441861)"
       x="0"
       y="0"
       width="100%"
       height="100%" />
    <use
       id="use27025"
       inkscape:spray-origin="#path25945"
       xlink:href="#path25945"
       transform="matrix(0.79919144,0,0,0.79919144,45.732897,24.984627)"
       x="0"
       y="0"
       width="100%"
       height="100%" />
    <use
       id="use27029"
       inkscape:spray-origin="#path25945"
       xlink:href="#path25945"
       transform="matrix(1.2677931,0,0,1.2677931,31.152439,21.529914)"
       x="0"
       y="0"
       width="100%"
       height="100%" />
    <use
       id="use27033"
       inkscape:spray-origin="#path25945"
       xlink:href="#path25945"
       transform="matrix(0.86275404,0,0,0.86275404,45.612818,29.384663)"
       x="0"
       y="0"
       width="100%"
       height="100%" />
    <use
       id="use27037"
       inkscape:spray-origin="#path25945"
       xlink:href="#path25945"
       transform="matrix(1.3017398,0,0,1.3017398,31.215103,25.11814)"
       x="0"
       y="0"
       width="100%"
       height="100%" />
    <use
       id="use27041"
       inkscape:spray-origin="#path25945"
       xlink:href="#path25945"
       transform="matrix(0.91450921,0,0,0.91450921,42.315348,32.212318)"
       x="0"
       y="0"
       width="100%"
       height="100%" />
    <use
       id="use27043"
       inkscape:spray-origin="#path25945"
       xlink:href="#path25945"
       transform="matrix(0.66097155,0,0,0.66097155,47.163196,35.979378)"
       x="0"
       y="0"
       width="100%"
       height="100%" />
    <use
       id="use27045"
       inkscape:spray-origin="#path25945"
       xlink:href="#path25945"
       transform="matrix(0.87447291,0,0,0.87447291,43.076011,35.172582)"
       x="0"
       y="0"
       width="100%"
       height="100%" />
    <use
       id="use27049"
       inkscape:spray-origin="#path25945"
       xlink:href="#path25945"
       transform="matrix(1.4030383,0,0,1.4030383,25.736565,32.689971)"
       x="0"
       y="0"
       width="100%"
       height="100%" />
    <use
       id="use27053"
       inkscape:spray-origin="#path25945"
       xlink:href="#path25945"
       transform="matrix(1.1759959,0,0,1.1759959,34.425635,34.578657)"
       x="0"
       y="0"
       width="100%"
       height="100%" />
    <use
       id="use27057"
       inkscape:spray-origin="#path25945"
       xlink:href="#path25945"
       transform="matrix(0.72937852,0,0,0.72937852,48.427686,37.310988)"
       x="0"
       y="0"
       width="100%"
       height="100%" />
    <use
       id="use27061"
       inkscape:spray-origin="#path25945"
       xlink:href="#path25945"
       transform="matrix(0.73065452,0,0,0.73065452,47.51457,42.061638)"
       x="0"
       y="0"
       width="100%"
       height="100%" />
    <use
       id="use27063"
       inkscape:spray-origin="#path25945"
       xlink:href="#path25945"
       transform="matrix(0.64297272,0,0,0.64297272,51.581307,44.29021)"
       x="0"
       y="0"
       width="100%"
       height="100%" />
    <use
       id="use27065"
       inkscape:spray-origin="#path25945"
       xlink:href="#path25945"
       transform="matrix(1.2693066,0,0,1.2693066,19.005735,54.991169)"
       x="0"
       y="0"
       width="100%"
       height="100%" />
    <use
       id="use27067"
       inkscape:spray-origin="#path25945"
       xlink:href="#path25945"
       transform="matrix(1.0850881,0,0,1.0850881,20.729992,54.145014)"
       x="0"
       y="0"
       width="100%"
       height="100%" />
    <use
       id="use27069"
       inkscape:spray-origin="#path25945"
       xlink:href="#path25945"
       transform="matrix(1.2348953,0,0,1.2348953,13.36695,53.600808)"
       x="0"
       y="0"
       width="100%"
       height="100%" />
    <use
       id="use27073"
       inkscape:spray-origin="#path25945"
       xlink:href="#path25945"
       transform="matrix(1.2430164,0,0,1.2430164,9.1703923,51.752338)"
       x="0"
       y="0"
       width="100%"
       height="100%" />
    <use
       id="use27079"
       inkscape:spray-origin="#path25945"
       xlink:href="#path25945"
       transform="matrix(1.0982612,0,0,1.0982612,10.099801,55.151758)"
       x="0"
       y="0"
       width="100%"
       height="100%" />
    <use
       id="use27081"
       inkscape:spray-origin="#path25945"
       xlink:href="#path25945"
       transform="matrix(0.81724423,0,0,0.81724423,21.619653,59.823038)"
       x="0"
       y="0"
       width="100%"
       height="100%" />
    <use
       id="use27083"
       inkscape:spray-origin="#path25945"
       xlink:href="#path25945"
       transform="matrix(0.95280294,0,0,0.95280294,13.504291,58.030073)"
       x="0"
       y="0"
       width="100%"
       height="100%" />
    <use
       id="use27085"
       inkscape:spray-origin="#path25945"
       xlink:href="#path25945"
       transform="matrix(1.1951103,0,0,1.1951103,5.3939162,52.887823)"
       x="0"
       y="0"
       width="100%"
       height="100%" />
    <use
       id="use27087"
       inkscape:spray-origin="#path25945"
       xlink:href="#path25945"
       transform="matrix(0.73274756,0,0,0.73274756,15.429984,61.158684)"
       x="0"
       y="0"
       width="100%"
       height="100%" />
    <use
       id="use27093"
       inkscape:spray-origin="#path25945"
       xlink:href="#path25945"
       transform="matrix(0.83376465,0,0,0.83376465,9.8074878,57.530037)"
       x="0"
       y="0"
       width="100%"
       height="100%" />
    <use
       id="use27097"
       inkscape:spray-origin="#path25945"
       xlink:href="#path25945"
       transform="matrix(1.3898866,0,0,1.3898866,-7.4546594,50.185238)"
       x="0"
       y="0"
       width="100%"
       height="100%" />
    <use
       id="use27101"
       inkscape:spray-origin="#path25945"
       xlink:href="#path25945"
       transform="matrix(0.79168413,0,0,0.79168413,12.21495,58.813052)"
       x="0"
       y="0"
       width="100%"
       height="100%" />
    <use
       id="use27105"
       inkscape:spray-origin="#path25945"
       xlink:href="#path25945"
       transform="matrix(0.84519904,0,0,0.84519904,2.9085109,59.703612)"
       x="0"
       y="0"
       width="100%"
       height="100%" />
    <use
       id="use27107"
       inkscape:spray-origin="#path25945"
       xlink:href="#path25945"
       transform="matrix(1.0131981,0,0,1.0131981,1.6482136,56.604254)"
       x="0"
       y="0"
       width="100%"
       height="100%" />
    <use
       id="use27111"
       inkscape:spray-origin="#path25945"
       xlink:href="#path25945"
       transform="matrix(0.83601161,0,0,0.83601161,5.3355713,60.416544)"
       x="0"
       y="0"
       width="100%"
       height="100%" />
    <use
       id="use27113"
       inkscape:spray-origin="#path25945"
       xlink:href="#path25945"
       transform="matrix(1.3300354,0,0,1.3300354,-1.9165104,50.557476)"
       x="0"
       y="0"
       width="100%"
       height="100%" />
    <use
       id="use27115"
       inkscape:spray-origin="#path25945"
       xlink:href="#path25945"
       transform="matrix(1.0079122,0,0,1.0079122,-0.63087724,55.424991)"
       x="0"
       y="0"
       width="100%"
       height="100%" />
    <use
       id="use27117"
       inkscape:spray-origin="#path25945"
       xlink:href="#path25945"
       transform="matrix(0.90710993,0,0,0.90710993,-16.790272,41.455448)"
       x="0"
       y="0"
       width="100%"
       height="100%" />
    <use
       id="use27119"
       inkscape:spray-origin="#path25945"
       xlink:href="#path25945"
       transform="matrix(0.79520995,0,0,0.79520995,-10.153099,43.046741)"
       x="0"
       y="0"
       width="100%"
       height="100%" />
    <use
       id="use27121"
       inkscape:spray-origin="#path25945"
       xlink:href="#path25945"
       transform="matrix(0.8293933,0,0,0.8293933,-15.509577,41.567422)"
       x="0"
       y="0"
       width="100%"
       height="100%" />
    <use
       id="use27123"
       inkscape:spray-origin="#path25945"
       xlink:href="#path25945"
       transform="matrix(1.0972546,0,0,1.0972546,-19.396258,36.697538)"
       x="0"
       y="0"
       width="100%"
       height="100%" />
    <use
       id="use27125"
       inkscape:spray-origin="#path25945"
       xlink:href="#path25945"
       transform="matrix(0.60673591,0,0,0.60673591,-6.4660128,41.206214)"
       x="0"
       y="0"
       width="100%"
       height="100%" />
    <use
       id="use27129"
       inkscape:spray-origin="#path25945"
       xlink:href="#path25945"
       transform="matrix(0.62910571,0,0,0.62910571,-8.9349493,38.882623)"
       x="0"
       y="0"
       width="100%"
       height="100%" />
    <use
       id="use27131"
       inkscape:spray-origin="#path25945"
       xlink:href="#path25945"
       transform="matrix(0.94176053,0,0,0.94176053,-15.221863,32.807022)"
       x="0"
       y="0"
       width="100%"
       height="100%" />
    <use
       id="use27133"
       inkscape:spray-origin="#path25945"
       xlink:href="#path25945"
       transform="matrix(1.0277484,0,0,1.0277484,-19.991678,32.482852)"
       x="0"
       y="0"
       width="100%"
       height="100%" />
    <use
       id="use27135"
       inkscape:spray-origin="#path25945"
       xlink:href="#path25945"
       transform="matrix(1.1035767,0,0,1.1035767,-19.956369,25.554142)"
       x="0"
       y="0"
       width="100%"
       height="100%" />
    <use
       id="use27137"
       inkscape:spray-origin="#path25945"
       xlink:href="#path25945"
       transform="matrix(0.72584887,0,0,0.72584887,-7.3983266,30.232061)"
       x="0"
       y="0"
       width="100%"
       height="100%" />
    <use
       id="use27139"
       inkscape:spray-origin="#path25945"
       xlink:href="#path25945"
       transform="matrix(1.0318729,0,0,1.0318729,-18.115714,24.107442)"
       x="0"
       y="0"
       width="100%"
       height="100%" />
    <use
       id="use27143"
       inkscape:spray-origin="#path25945"
       xlink:href="#path25945"
       transform="matrix(1.1956002,0,0,1.1956002,-19.966041,22.476126)"
       x="0"
       y="0"
       width="100%"
       height="100%" />
    <use
       id="use27147"
       inkscape:spray-origin="#path25945"
       xlink:href="#path25945"
       transform="matrix(1.231358,0,0,1.231358,-22.212761,19.882715)"
       x="0"
       y="0"
       width="100%"
       height="100%" />
    <use
       id="use27151"
       inkscape:spray-origin="#path25945"
       xlink:href="#path25945"
       transform="matrix(0.75586354,0,0,0.75586354,-10.812191,22.389584)"
       x="0"
       y="0"
       width="100%"
       height="100%" />
    <use
       id="use27153"
       inkscape:spray-origin="#path25945"
       xlink:href="#path25945"
       transform="matrix(0.87581321,0,0,0.87581321,-11.298073,19.589567)"
       x="0"
       y="0"
       width="100%"
       height="100%" />
    <use
       id="use27155"
       inkscape:spray-origin="#path25945"
       xlink:href="#path25945"
       transform="matrix(0.71600112,0,0,0.71600112,-10.048508,19.310742)"
       x="0"
       y="0"
       width="100%"
       height="100%" />
    <use
       id="use27157"
       inkscape:spray-origin="#path25945"
       xlink:href="#path25945"
       transform="matrix(0.81508224,0,0,0.81508224,-12.579629,18.918727)"
       x="0"
       y="0"
       width="100%"
       height="100%" />
    <use
       id="use27159"
       inkscape:spray-origin="#path25945"
       xlink:href="#path25945"
       transform="matrix(0.99677705,0,0,0.99677705,-17.428298,13.987101)"
       x="0"
       y="0"
       width="100%"
       height="100%" />
    <use
       id="use27161"
       inkscape:spray-origin="#path25945"
       xlink:href="#path25945"
       transform="matrix(0.88246551,0,0,0.88246551,-13.305107,16.726357)"
       x="0"
       y="0"
       width="100%"
       height="100%" />
    <use
       id="use27163"
       inkscape:spray-origin="#path25945"
       xlink:href="#path25945"
       transform="matrix(1.036612,0,0,1.036612,-20.223452,13.757278)"
       x="0"
       y="0"
       width="100%"
       height="100%" />
    <use
       x="0"
       y="0"
       xlink:href="#use27101"
       id="use107"
       transform="translate(15.952853,0.88958467)"
       width="100%"
       height="100%" />
    <use
       x="0"
       y="0"
       xlink:href="#use26977"
       id="use427"
       transform="translate(7.0878095,-1.4946248)"
       width="100%"
       height="100%" />
    <use
       x="0"
       y="0"
       xlink:href="#use26961"
       id="use429"
       transform="translate(-6.2580372,1.0320956)"
       width="100%"
       height="100%" />
    <use
       x="0"
       y="0"
       xlink:href="#use26947"
       id="use431"
       transform="translate(-1.1875697,-1.2342455)"
       width="100%"
       height="100%" />
    <use
       x="0"
       y="0"
       xlink:href="#use26985"
       id="use433"
       transform="translate(0.08173709,-1.4472586)"
       width="100%"
       height="100%" />
    <use
       x="0"
       y="0"
       xlink:href="#use26977"
       id="use435"
       transform="translate(1.5049527,-2.0179898)"
       width="100%"
       height="100%" />
    <use
       x="0"
       y="0"
       xlink:href="#use26965"
       id="use437"
       transform="translate(-0.63707894,-2.0172348)"
       width="100%"
       height="100%" />
    <use
       x="0"
       y="0"
       xlink:href="#use26987"
       id="use887"
       transform="translate(6.7385845,-5.667863)"
       width="100%"
       height="100%" />
    <use
       x="0"
       y="0"
       xlink:href="#use427"
       id="use889"
       transform="translate(9.0380246,-6.4363342)"
       width="100%"
       height="100%" />
    <use
       x="0"
       y="0"
       xlink:href="#use27029"
       id="use1005"
       transform="translate(9.2951939,20.331674)"
       width="100%"
       height="100%" />
    <use
       x="0"
       y="0"
       xlink:href="#use27057"
       id="use1007"
       transform="translate(6.3431173,9.61956)"
       width="100%"
       height="100%" />
    <use
       x="0"
       y="0"
       xlink:href="#use27063"
       id="use1009"
       transform="translate(7.2344933,2.5725748)"
       width="100%"
       height="100%" />
    <use
       x="0"
       y="0"
       xlink:href="#use27073"
       id="use1128"
       transform="translate(12.798739,10.400557)"
       width="100%"
       height="100%" />
    <use
       x="0"
       y="0"
       xlink:href="#use27081"
       id="use1130"
       transform="translate(10.513766,8.2424221)"
       width="100%"
       height="100%" />
    <use
       x="0"
       y="0"
       xlink:href="#use27063"
       id="use1132"
       transform="translate(-15.533807,23.535682)"
       width="100%"
       height="100%" />
  </g>
  <g
     id="g22064"
     inkscape:label="g22064"
     sodipodi:insensitive="true">
    <rect
       style="fill:#000000;stroke:#ffe680;stroke-width:0.7745;stroke-miterlimit:4;stroke-dasharray:none;stroke-dashoffset:0"
       id="rect2524"
       width="52.916664"
       height="52.895733"
       x="13.229248"
       y="13.229167"
       inkscape:export-filename="/home/mrr/rect2524.png"
       inkscape:export-xdpi="231.63"
       inkscape:export-ydpi="231.63" />
  </g>
  <g
     id="g1589"
     style="display:inline;fill:#000000"
     transform="translate(-30.930153,-16.409407)">
    <circle
       style="fill:#000000;fill-rule:evenodd;stroke:#ffe680;stroke-width:0.2;stroke-miterlimit:4;stroke-dasharray:none"
       id="path859"
       cx="18.912962"
       cy="31.996332"
       r="5.3829751" />
    <path
       sodipodi:type="star"
       style="fill:#000000;stroke:#ffe680;stroke-width:0.390586;stroke-miterlimit:4;stroke-dasharray:none"
       id="path1019"
       inkscape:flatsided="false"
       sodipodi:sides="8"
       sodipodi:cx="61.006889"
       sodipodi:cy="110.35451"
       sodipodi:r1="10.055761"
       sodipodi:r2="7.7278519"
       sodipodi:arg1="0.26179939"
       sodipodi:arg2="0.65449847"
       inkscape:rounded="0"
       inkscape:randomized="0"
       d="m 70.720009,112.95713 -3.582203,2.1018 -1.103036,4.00412 -4.019194,-1.0468 -3.611309,2.05138 -2.101796,-3.58221 -4.004126,-1.10303 1.046805,-4.0192 -2.05138,-3.61131 3.582202,-2.10179 1.103037,-4.00413 4.019193,1.04681 3.61131,-2.05138 2.101795,3.5822 4.004127,1.10304 -1.046806,4.01919 z"
       transform="matrix(0.49460384,-0.13252869,0.13252869,0.49460384,-25.886418,-14.500268)" />
    <ellipse
       style="fill:#000000;stroke:#ffe680;stroke-width:0.2;stroke-miterlimit:4;stroke-dasharray:none"
       id="path848"
       cx="21.744295"
       cy="29.154224"
       rx="0.36000001"
       ry="0.36000049" />
    <ellipse
       style="fill:#000000;stroke:#ffe680;stroke-width:0.2;stroke-miterlimit:4;stroke-dasharray:none"
       id="ellipse557"
       cx="-29.164999"
       cy="16.070854"
       rx="0.36000001"
       ry="0.36000049"
       transform="rotate(-90)" />
    <ellipse
       style="fill:#000000;stroke:#ffe680;stroke-width:0.2;stroke-miterlimit:4;stroke-dasharray:none"
       id="ellipse559"
       cx="-16.081629"
       cy="-34.83844"
       rx="0.36000001"
       ry="0.36000049"
       transform="scale(-1)" />
    <ellipse
       style="fill:#000000;stroke:#ffe680;stroke-width:0.2;stroke-miterlimit:4;stroke-dasharray:none"
       id="ellipse561"
       cx="34.827667"
       cy="-21.75507"
       rx="0.36000001"
       ry="0.36000049"
       transform="rotate(90)" />
    <ellipse
       style="fill:#000000;stroke:#ffe680;stroke-width:0.2;stroke-miterlimit:4;stroke-dasharray:none"
       id="ellipse1414"
       cx="18.912962"
       cy="27.944368"
       rx="0.36000001"
       ry="0.36000049"
       inkscape:transform-center-y="-4.0519637" />
    <ellipse
       style="fill:#000000;stroke:#ffe680;stroke-width:0.2;stroke-miterlimit:4;stroke-dasharray:none"
       id="ellipse1416"
       cx="-31.996332"
       cy="14.860998"
       rx="0.36000001"
       ry="0.36000049"
       transform="rotate(-90)"
       inkscape:transform-center-x="4.0519638" />
    <ellipse
       style="display:inline;fill:#000000;stroke:#ffe680;stroke-width:0.2;stroke-miterlimit:4;stroke-dasharray:none"
       id="ellipse1418"
       cx="-18.912962"
       cy="-36.048294"
       rx="0.36000001"
       ry="0.36000049"
       transform="scale(-1)"
       inkscape:transform-center-y="4.0519619" />
    <ellipse
       style="display:inline;fill:#000000;stroke:#ffe680;stroke-width:0.2;stroke-miterlimit:4;stroke-dasharray:none"
       id="ellipse1420"
       cx="31.996332"
       cy="-22.964924"
       rx="0.36000001"
       ry="0.36000049"
       transform="rotate(90)"
       inkscape:transform-center-x="-4.0519619" />
    <path
       sodipodi:type="star"
       style="display:inline;fill:#000000;stroke:#ffe680;stroke-width:0.713663;stroke-miterlimit:4;stroke-dasharray:none"
       id="path1472"
       inkscape:flatsided="false"
       sodipodi:sides="12"
       sodipodi:cx="71.482063"
       sodipodi:cy="120.93102"
       sodipodi:r1="12.427378"
       sodipodi:r2="10.933773"
       sodipodi:arg1="-1.5707963"
       sodipodi:arg2="-1.3089969"
       inkscape:rounded="0"
       inkscape:randomized="0"
       d="m 71.482064,108.50364 2.829868,1.86617 3.38382,-0.20121 1.517657,3.03108 3.031079,1.51765 -0.201211,3.38382 1.866164,2.82987 -1.866164,2.82987 0.201211,3.38382 -3.03108,1.51766 -1.517656,3.03108 -3.38382,-0.20121 -2.829869,1.86616 -2.829869,-1.86616 -3.38382,0.20121 -1.517656,-3.03108 -3.03108,-1.51766 0.201211,-3.38382 -1.866163,-2.82987 1.866164,-2.82987 -0.201211,-3.38382 3.03108,-1.51765 1.517656,-3.03108 3.38382,0.20121 z"
       transform="matrix(0.27216524,0,0,0.27216524,-0.54197028,-0.92556017)"
       inkscape:transform-center-y="-0.31131471" />
  </g>
  <g
     id="g23736"
     style="display:inline;opacity:1"
     inkscape:groupmode="layer"
     sodipodi:insensitive="true">
    <use
       x="0"
       y="0"
       xlink:href="#g1589"
       id="use3481"
       transform="matrix(2.4127716,0,0,2.4127716,42.223907,-24.357602)"
       width="100%"
       height="100%"
       inkscape:export-filename="/home/mrr/rect2524.png"
       inkscape:export-xdpi="231.63"
       inkscape:export-ydpi="231.63"
       style="display:inline" />
    <use
       x="0"
       y="0"
       xlink:href="#use3481"
       id="use3483"
       transform="translate(52.916662,-0.02092251)"
       width="100%"
       height="100%"
       inkscape:export-filename="/home/mrr/rect2524.png"
       inkscape:export-xdpi="231.63"
       inkscape:export-ydpi="231.63" />
    <use
       x="0"
       y="0"
       xlink:href="#use3483"
       id="use3485"
       transform="translate(-7.0021319e-7,52.895732)"
       width="100%"
       height="100%"
       inkscape:export-filename="/home/mrr/rect2524.png"
       inkscape:export-xdpi="231.63"
       inkscape:export-ydpi="231.63" />
    <use
       x="0"
       y="0"
       xlink:href="#use3485"
       id="use3487"
       transform="translate(-52.916665)"
       width="100%"
       height="100%"
       inkscape:export-filename="/home/mrr/rect2524.png"
       inkscape:export-xdpi="231.63"
       inkscape:export-ydpi="231.63" />
  </g>
</svg>
